<?xml version="1.0" encoding="UTF-8"?>
<svg xmlns="http://www.w3.org/2000/svg" xmlns:xlink="http://www.w3.org/1999/xlink" width="48px" height="48px" viewBox="0 0 48 48" version="1.1">
<g id="surface1">
<path style=" stroke:none;fill-rule:nonzero;fill:rgb(60.784316%,30.980393%,58.823532%);fill-opacity:1;" d="M 43.273438 11.511719 L 25.164062 1.085938 C 24.863281 0.898438 24.449219 0.824219 24 0.824219 C 23.550781 0.824219 23.136719 0.9375 22.835938 1.085938 L 4.835938 11.550781 C 4.199219 11.925781 3.75 12.863281 3.75 13.574219 L 3.75 34.460938 C 3.75 34.875 3.824219 35.363281 4.125 35.773438 L 44.175781 12.523438 C 43.949219 12.074219 43.613281 11.738281 43.273438 11.511719 Z M 43.273438 11.511719 "/>
<path style=" stroke:none;fill-rule:nonzero;fill:rgb(40.784314%,12.941177%,47.843137%);fill-opacity:1;" d="M 4.011719 35.738281 C 4.199219 36.039062 4.460938 36.300781 4.726562 36.449219 L 22.800781 46.914062 C 23.101562 47.101562 23.511719 47.175781 23.960938 47.175781 C 24.414062 47.175781 24.824219 47.0625 25.125 46.914062 L 43.125 36.449219 C 43.761719 36.074219 44.210938 35.136719 44.210938 34.425781 L 44.210938 13.539062 C 44.210938 13.199219 44.175781 12.824219 43.988281 12.488281 Z M 4.011719 35.738281 "/>
<path style=" stroke:none;fill-rule:nonzero;fill:rgb(100%,100%,100%);fill-opacity:1;" d="M 31.988281 28.539062 C 30.414062 31.3125 27.414062 33.1875 24 33.1875 C 18.9375 33.1875 14.8125 29.0625 14.8125 24 C 14.8125 18.9375 18.9375 14.8125 24 14.8125 C 27.414062 14.8125 30.414062 16.6875 31.988281 19.5 L 36.863281 16.6875 C 34.3125 12.226562 29.511719 9.1875 24 9.1875 C 15.824219 9.1875 9.1875 15.824219 9.1875 24 C 9.1875 32.175781 15.824219 38.8125 24 38.8125 C 29.476562 38.8125 34.273438 35.8125 36.824219 31.386719 Z M 36.375 24.824219 L 36.710938 23.210938 L 35.136719 23.210938 L 35.136719 21.449219 L 37.050781 21.449219 L 37.5 19.125 L 39.335938 19.125 L 38.886719 21.414062 L 40.3125 21.414062 L 40.761719 19.125 L 42.5625 19.125 L 42.113281 21.414062 L 43.011719 21.414062 L 43.011719 23.175781 L 41.773438 23.175781 L 41.4375 24.789062 L 43.011719 24.789062 L 43.011719 26.550781 L 41.101562 26.550781 L 40.648438 28.800781 L 38.8125 28.800781 L 39.261719 26.550781 L 37.835938 26.550781 L 37.386719 28.800781 L 35.585938 28.800781 L 36.039062 26.550781 L 35.136719 26.550781 L 35.136719 24.789062 L 36.375 24.789062 Z M 38.175781 24.824219 L 39.601562 24.824219 L 39.9375 23.210938 L 38.511719 23.210938 Z M 38.175781 24.824219 "/>
</g>
</svg>
