<?xml version="1.0" encoding="UTF-8"?>
<svg xmlns="http://www.w3.org/2000/svg" xmlns:xlink="http://www.w3.org/1999/xlink" width="48px" height="48px" viewBox="0 0 48 48" version="1.1">
<g id="surface1">
<path style=" stroke:none;fill-rule:nonzero;fill:rgb(38.431373%,21.176471%,59.215689%);fill-opacity:1;" d="M 22.949219 0 L 24.804688 0 C 29.648438 0.199219 34.4375 1.832031 38.320312 4.753906 C 42 7.488281 44.875 11.292969 46.46875 15.59375 C 47.382812 17.988281 47.84375 20.535156 48 23.089844 L 48 24.667969 C 47.84375 28.902344 46.625 33.113281 44.351562 36.699219 C 41.800781 40.785156 38.003906 44.097656 33.578125 46.011719 C 30.679688 47.265625 27.5625 47.941406 24.40625 48 L 23.601562 48 C 19.199219 47.929688 14.824219 46.628906 11.117188 44.253906 C 6.917969 41.585938 3.574219 37.582031 1.730469 32.960938 C 0.710938 30.445312 0.164062 27.757812 0 25.054688 L 0 23.195312 C 0.1875 17.800781 2.230469 12.46875 5.777344 8.382812 C 8.6875 4.992188 12.5625 2.429688 16.832031 1.101562 C 18.816406 0.476562 20.878906 0.152344 22.949219 0 M 9.445312 14.070312 C 9.433594 18.628906 9.441406 23.183594 9.441406 27.742188 C 9.980469 27.746094 10.515625 27.746094 11.050781 27.746094 C 11.023438 23.832031 11.089844 19.921875 11.011719 16.011719 C 11.191406 16.351562 11.355469 16.699219 11.5625 17.027344 C 13.886719 20.589844 16.164062 24.1875 18.492188 27.75 C 19.144531 27.742188 19.792969 27.742188 20.445312 27.75 C 20.445312 23.191406 20.445312 18.632812 20.449219 14.070312 C 19.917969 14.066406 19.386719 14.066406 18.855469 14.066406 C 18.882812 17.9375 18.804688 21.808594 18.902344 25.671875 C 16.460938 21.789062 13.988281 17.929688 11.515625 14.070312 C 10.824219 14.0625 10.136719 14.066406 9.445312 14.070312 M 24.011719 14.066406 C 23.964844 18.628906 24.011719 23.1875 23.996094 27.746094 C 26.421875 27.738281 28.847656 27.753906 31.273438 27.738281 C 31.265625 27.242188 31.269531 26.75 31.285156 26.257812 C 29.402344 26.25 27.523438 26.257812 25.640625 26.25 C 25.613281 24.667969 25.640625 23.089844 25.628906 21.507812 C 27.273438 21.480469 28.921875 21.515625 30.570312 21.492188 C 30.566406 21.011719 30.566406 20.535156 30.5625 20.054688 C 28.917969 20.109375 27.273438 20.035156 25.625 20.058594 C 25.628906 18.550781 25.632812 17.039062 25.632812 15.53125 C 27.394531 15.53125 29.15625 15.523438 30.917969 15.535156 C 30.914062 15.046875 30.917969 14.558594 30.925781 14.070312 C 28.621094 14.0625 26.316406 14.066406 24.011719 14.066406 M 32.488281 14.085938 C 32.492188 14.5625 32.492188 15.035156 32.492188 15.507812 C 33.800781 15.492188 35.105469 15.550781 36.414062 15.523438 C 36.40625 19.59375 36.414062 23.664062 36.410156 27.738281 C 36.957031 27.753906 37.507812 27.75 38.054688 27.703125 C 38.011719 25.457031 38.101562 23.207031 37.996094 20.960938 C 38.023438 19.949219 37.972656 18.9375 38.042969 17.929688 C 38.082031 17.125 37.9375 16.324219 38.027344 15.523438 C 39.347656 15.539062 40.667969 15.527344 41.984375 15.527344 C 41.980469 15.046875 41.988281 14.570312 42.011719 14.089844 C 38.835938 14.050781 35.660156 14.054688 32.488281 14.085938 M 5.082031 25.910156 C 4.339844 26.25 4.292969 27.417969 5.023438 27.796875 C 5.671875 28.238281 6.640625 27.65625 6.609375 26.890625 C 6.660156 26.140625 5.75 25.507812 5.082031 25.910156 M 16.042969 31.644531 C 14.4375 32.945312 14.457031 35.839844 16.230469 36.988281 C 17.230469 37.621094 18.519531 37.492188 19.574219 37.066406 C 19.582031 36.835938 19.585938 36.601562 19.59375 36.371094 C 18.59375 36.894531 17.191406 37 16.339844 36.140625 C 15.230469 34.929688 15.480469 32.664062 16.945312 31.839844 C 17.773438 31.402344 18.785156 31.527344 19.601562 31.929688 C 19.601562 31.679688 19.601562 31.433594 19.601562 31.183594 C 18.441406 30.773438 17.007812 30.796875 16.042969 31.644531 M 22.496094 32.660156 C 21.785156 32.742188 21.085938 33.117188 20.757812 33.773438 C 20.289062 34.707031 20.34375 35.972656 21.082031 36.757812 C 21.84375 37.617188 23.3125 37.628906 24.148438 36.867188 C 25.058594 36.003906 25.160156 34.441406 24.433594 33.433594 C 24.003906 32.820312 23.207031 32.613281 22.496094 32.660156 M 29.203125 33.679688 C 28.582031 34.761719 28.703125 36.398438 29.800781 37.136719 C 30.621094 37.59375 31.652344 37.445312 32.453125 37.019531 C 32.453125 36.789062 32.457031 36.554688 32.464844 36.328125 C 31.832031 36.726562 30.988281 37.023438 30.285156 36.617188 C 29.796875 36.347656 29.648438 35.773438 29.570312 35.257812 C 30.648438 35.242188 31.722656 35.226562 32.804688 35.230469 C 32.773438 34.546875 32.757812 33.769531 32.257812 33.242188 C 31.433594 32.328125 29.769531 32.617188 29.203125 33.679688 M 26.046875 32.804688 L 26.046875 37.308594 C 26.292969 37.308594 26.539062 37.308594 26.789062 37.308594 C 26.796875 36.488281 26.773438 35.660156 26.796875 34.835938 C 26.800781 34.359375 26.992188 33.878906 27.351562 33.554688 C 27.652344 33.328125 28.058594 33.457031 28.402344 33.464844 C 28.398438 33.226562 28.394531 32.988281 28.394531 32.75 C 27.722656 32.601562 27.144531 32.996094 26.804688 33.542969 C 26.796875 33.308594 26.789062 33.070312 26.785156 32.835938 C 26.539062 32.824219 26.292969 32.816406 26.046875 32.804688 Z M 26.046875 32.804688 "/>
<path style=" stroke:none;fill-rule:nonzero;fill:rgb(38.431373%,21.176471%,59.215689%);fill-opacity:1;" d="M 22.035156 33.457031 C 22.652344 33.15625 23.542969 33.304688 23.886719 33.945312 C 24.28125 34.652344 24.273438 35.589844 23.835938 36.273438 C 23.265625 37.132812 21.765625 36.945312 21.390625 35.996094 C 21.011719 35.148438 21.160156 33.941406 22.035156 33.457031 Z M 29.640625 34.65625 C 29.65625 34.066406 30.070312 33.480469 30.664062 33.351562 C 31.027344 33.289062 31.449219 33.351562 31.703125 33.648438 C 31.953125 33.914062 32.007812 34.289062 32.070312 34.636719 C 31.257812 34.640625 30.449219 34.625 29.640625 34.65625 Z M 29.640625 34.65625 "/>
</g>
</svg>
