<?xml version="1.0" encoding="UTF-8"?>
<svg xmlns="http://www.w3.org/2000/svg" xmlns:xlink="http://www.w3.org/1999/xlink" width="48px" height="48px" viewBox="0 0 48 48" version="1.1">
<g id="surface1">
<path style=" stroke:none;fill-rule:nonzero;fill:rgb(95.294118%,30.980393%,16.078432%);fill-opacity:1;" d="M 46.777344 21.890625 L 26.109375 1.222656 C 24.917969 0.0351562 22.988281 0.0351562 21.796875 1.222656 L 17.503906 5.515625 L 22.949219 10.960938 C 24.214844 10.535156 25.664062 10.820312 26.671875 11.828125 C 27.6875 12.84375 27.972656 14.304688 27.535156 15.574219 L 32.78125 20.824219 C 34.050781 20.386719 35.515625 20.667969 36.527344 21.683594 C 37.945312 23.101562 37.945312 25.394531 36.527344 26.8125 C 35.113281 28.230469 32.8125 28.230469 31.398438 26.8125 C 30.363281 25.777344 30.050781 24.222656 30.609375 22.867188 L 25.714844 17.976562 L 25.714844 30.851562 C 26.070312 31.027344 26.394531 31.257812 26.675781 31.539062 C 28.089844 32.953125 28.089844 35.25 26.675781 36.667969 C 25.257812 38.085938 22.960938 38.085938 21.542969 36.667969 C 20.128906 35.25 20.128906 32.953125 21.542969 31.539062 C 21.882812 31.199219 22.289062 30.929688 22.730469 30.746094 L 22.730469 17.75 C 22.289062 17.566406 21.882812 17.300781 21.542969 16.957031 C 20.472656 15.886719 20.210938 14.3125 20.761719 12.992188 L 15.394531 7.625 L 1.222656 21.796875 C 0.0351562 22.988281 0.0351562 24.917969 1.222656 26.109375 L 21.894531 46.777344 C 23.082031 47.964844 25.011719 47.964844 26.203125 46.777344 L 46.777344 26.203125 C 47.96875 25.011719 47.96875 23.082031 46.777344 21.890625 Z M 46.777344 21.890625 "/>
</g>
</svg>
