<?xml version="1.0" encoding="UTF-8"?>
<svg xmlns="http://www.w3.org/2000/svg" xmlns:xlink="http://www.w3.org/1999/xlink" width="48px" height="48px" viewBox="0 0 48 48" version="1.1">
<g id="surface1">
<path style=" stroke:none;fill-rule:nonzero;fill:rgb(91.764706%,10.588235%,13.333334%);fill-opacity:1;" d="M 20.769531 24.925781 L 23.894531 24.925781 L 22.242188 22.265625 L 19.210938 27.074219 L 17.828125 27.074219 L 21.519531 21.300781 C 21.683594 21.0625 21.953125 20.921875 22.242188 20.925781 C 22.527344 20.925781 22.796875 21.0625 22.953125 21.289062 L 26.65625 27.074219 L 25.273438 27.074219 L 24.625 26 L 21.460938 26 Z M 35.109375 26 L 35.109375 20.984375 L 33.9375 20.984375 L 33.9375 26.492188 C 33.9375 26.640625 33.996094 26.789062 34.105469 26.898438 C 34.21875 27.011719 34.371094 27.074219 34.535156 27.074219 L 39.875 27.074219 L 40.566406 26 Z M 15.730469 25.101562 C 16.867188 25.101562 17.789062 24.183594 17.789062 23.046875 C 17.789062 21.90625 16.867188 20.984375 15.730469 20.984375 L 10.605469 20.984375 L 10.605469 27.074219 L 11.777344 27.074219 L 11.777344 22.058594 L 15.652344 22.058594 C 16.195312 22.058594 16.632812 22.5 16.632812 23.042969 C 16.632812 23.589844 16.195312 24.03125 15.652344 24.03125 L 12.347656 24.027344 L 15.847656 27.074219 L 17.546875 27.074219 L 15.195312 25.101562 Z M 3.398438 27.074219 C 1.714844 27.074219 0.351562 25.714844 0.351562 24.03125 C 0.351562 22.351562 1.714844 20.984375 3.398438 20.984375 L 6.9375 20.984375 C 8.617188 20.984375 9.980469 22.351562 9.980469 24.03125 C 9.980469 25.714844 8.617188 27.074219 6.9375 27.074219 Z M 6.859375 26 C 7.378906 26 7.882812 25.792969 8.25 25.425781 C 8.621094 25.054688 8.828125 24.554688 8.828125 24.03125 C 8.828125 22.941406 7.949219 22.058594 6.859375 22.058594 L 3.476562 22.058594 C 2.386719 22.058594 1.503906 22.941406 1.503906 24.03125 C 1.503906 25.121094 2.386719 26 3.476562 26 Z M 29.101562 27.074219 C 27.417969 27.074219 26.054688 25.714844 26.054688 24.03125 C 26.054688 22.351562 27.417969 20.984375 29.101562 20.984375 L 33.304688 20.984375 L 32.621094 22.058594 L 29.179688 22.058594 C 28.089844 22.058594 27.207031 22.941406 27.203125 24.03125 C 27.203125 25.121094 28.089844 26 29.179688 26 L 33.402344 26 L 32.710938 27.074219 Z M 43.425781 26 C 42.542969 26 41.769531 25.414062 41.527344 24.566406 L 46.535156 24.566406 L 47.226562 23.492188 L 41.527344 23.492188 C 41.769531 22.644531 42.542969 22.058594 43.425781 22.058594 L 46.859375 22.058594 L 47.554688 20.984375 L 43.347656 20.984375 C 41.664062 20.984375 40.300781 22.351562 40.300781 24.03125 C 40.300781 25.714844 41.664062 27.074219 43.347656 27.074219 L 46.957031 27.074219 L 47.648438 26 L 43.425781 26 "/>
</g>
</svg>
