<?xml version="1.0" encoding="UTF-8"?>
<svg xmlns="http://www.w3.org/2000/svg" xmlns:xlink="http://www.w3.org/1999/xlink" width="48px" height="48px" viewBox="0 0 48 48" version="1.1">
<g id="surface1">
<path style=" stroke:none;fill-rule:nonzero;fill:rgb(95.294118%,43.921569%,21.176471%);fill-opacity:1;" d="M 42.417969 9.773438 C 34.5625 -0.398438 19.945312 -2.277344 9.773438 5.582031 C -0.398438 13.4375 -2.273438 28.054688 5.582031 38.226562 C 13.441406 48.398438 28.058594 50.273438 38.230469 42.414062 C 48.398438 34.558594 50.273438 19.945312 42.417969 9.773438 Z M 42.417969 9.773438 "/>
<path style=" stroke:none;fill-rule:nonzero;fill:rgb(100%,100%,100%);fill-opacity:1;" d="M 34.152344 9.0625 C 33.351562 9.125 32.59375 9.445312 31.988281 9.972656 C 30.511719 11.25 30.261719 13.441406 31.410156 15.019531 C 32.554688 16.597656 34.714844 17.042969 36.386719 16.039062 L 36.445312 16.097656 C 36.710938 15.945312 36.960938 15.761719 37.183594 15.554688 C 38.617188 14.035156 38.59375 11.652344 37.125 10.164062 L 33.808594 13.460938 L 33.75 13.402344 L 37.066406 10.105469 C 36.289062 9.355469 35.230469 8.976562 34.152344 9.0625 Z M 29.789062 14.457031 C 28.199219 14.453125 25.601562 16.257812 19.261719 22.59375 L 19.292969 22.628906 C 19.257812 22.617188 19.226562 22.613281 19.226562 22.613281 L 16.839844 24.980469 C 16.710938 25.101562 16.679688 25.289062 16.761719 25.441406 C 16.84375 25.597656 17.015625 25.675781 17.1875 25.640625 L 21.28125 24.769531 L 21.40625 24.796875 L 20.011719 26.179688 L 19.941406 26.179688 L 11.660156 34.527344 L 14.316406 37.085938 C 14.46875 37.226562 14.695312 37.246094 14.871094 37.144531 C 15.050781 37.039062 15.144531 36.839844 15.113281 36.636719 L 14.726562 34.949219 C 14.675781 34.878906 14.675781 34.785156 14.726562 34.714844 C 18.351562 32.984375 21.726562 30.765625 24.75 28.121094 L 23.050781 26.421875 L 23.082031 26.414062 L 22.074219 25.40625 L 22.140625 25.339844 L 22.207031 25.410156 L 22.171875 25.445312 L 24.847656 28.179688 C 29.976562 23.320312 33.621094 19.417969 32.671875 16.789062 C 32.628906 16.472656 32.484375 16.183594 32.257812 15.960938 C 32.199219 15.917969 32.140625 15.878906 32.078125 15.847656 C 32.046875 15.8125 32.019531 15.78125 31.984375 15.75 L 31.960938 15.773438 C 31.890625 15.730469 31.816406 15.695312 31.742188 15.664062 L 31.851562 15.554688 C 31.175781 14.953125 30.621094 14.457031 29.789062 14.457031 Z M 11.601562 34.578125 L 9.664062 36.519531 C 9.519531 36.609375 9.453125 36.777344 9.492188 36.941406 C 9.53125 37.105469 9.671875 37.222656 9.835938 37.238281 L 14.589844 37.566406 Z M 11.601562 34.578125 "/>
<path style=" stroke:none;fill-rule:nonzero;fill:rgb(95.294118%,43.921569%,21.176471%);fill-opacity:1;" d="M 34.480469 8.742188 C 33.394531 8.738281 32.347656 9.167969 31.570312 9.929688 C 30.445312 11.085938 30.09375 12.789062 30.675781 14.296875 C 28.898438 13.535156 26.492188 14.863281 19.011719 22.339844 C 18.980469 22.382812 18.964844 22.390625 18.953125 22.398438 L 16.585938 24.785156 C 16.351562 25.015625 16.296875 25.371094 16.449219 25.660156 C 16.585938 25.882812 16.828125 26.023438 17.089844 26.027344 L 17.207031 25.949219 L 20.367188 25.277344 L 18.855469 26.800781 C 18.847656 26.824219 18.839844 26.84375 18.835938 26.863281 L 11.429688 34.289062 C 11.398438 34.3125 11.375 34.34375 11.355469 34.378906 L 9.449219 36.289062 C 9.253906 36.492188 9.195312 36.789062 9.292969 37.054688 C 9.394531 37.316406 9.636719 37.5 9.914062 37.527344 L 14.648438 37.859375 C 14.726562 37.828125 14.796875 37.773438 14.84375 37.703125 C 14.925781 37.585938 14.925781 37.429688 14.84375 37.3125 L 14.832031 37.304688 C 14.933594 37.25 15.023438 37.175781 15.097656 37.085938 C 15.25 36.886719 15.304688 36.628906 15.25 36.382812 L 14.878906 34.8125 C 18.421875 33.121094 21.738281 30.996094 24.753906 28.492188 C 24.785156 28.507812 24.816406 28.519531 24.847656 28.527344 C 24.945312 28.523438 25.03125 28.480469 25.101562 28.414062 C 30.179688 23.601562 33.167969 20.304688 33.167969 17.6875 C 33.179688 17.324219 33.125 16.960938 33.007812 16.621094 C 33.464844 16.808594 33.953125 16.914062 34.449219 16.929688 L 34.441406 16.933594 C 35.125 16.910156 35.792969 16.722656 36.386719 16.386719 C 36.464844 16.410156 36.546875 16.402344 36.621094 16.367188 C 36.90625 16.199219 37.167969 15.992188 37.394531 15.75 C 38.175781 14.980469 38.617188 13.933594 38.617188 12.839844 C 38.617188 11.746094 38.175781 10.695312 37.394531 9.929688 C 37.382812 9.917969 37.367188 9.90625 37.351562 9.894531 C 36.578125 9.15625 35.550781 8.742188 34.480469 8.742188 Z M 34.449219 9.40625 C 35.207031 9.410156 35.941406 9.664062 36.542969 10.125 L 33.519531 13.167969 C 33.433594 13.257812 33.402344 13.332031 33.398438 13.410156 C 33.398438 13.503906 33.441406 13.59375 33.515625 13.652344 L 33.519531 13.652344 L 35.804688 15.941406 C 34.523438 16.5 33.03125 16.214844 32.042969 15.222656 C 31.074219 14.25 30.792969 12.785156 31.3125 11.515625 C 31.832031 10.242188 33.066406 9.414062 34.449219 9.40625 Z M 37.117188 10.691406 C 37.613281 11.292969 37.882812 12.042969 37.882812 12.820312 C 37.878906 13.730469 37.515625 14.601562 36.871094 15.246094 C 36.742188 15.367188 36.605469 15.476562 36.460938 15.582031 L 34.613281 13.761719 L 34.253906 13.402344 L 34.351562 13.300781 Z M 36.980469 12.265625 C 36.914062 12.242188 36.839844 12.246094 36.773438 12.277344 C 36.710938 12.308594 36.664062 12.367188 36.640625 12.4375 C 36.617188 12.507812 36.625 12.582031 36.660156 12.644531 C 36.792969 12.933594 36.757812 13.269531 36.5625 13.519531 C 36.511719 13.566406 36.488281 13.632812 36.488281 13.703125 C 36.492188 13.769531 36.515625 13.835938 36.5625 13.886719 C 36.613281 13.90625 36.667969 13.90625 36.71875 13.886719 C 36.808594 13.910156 36.90625 13.878906 36.96875 13.808594 C 37.296875 13.410156 37.363281 12.859375 37.144531 12.394531 C 37.109375 12.332031 37.050781 12.285156 36.980469 12.265625 Z M 29.753906 14.785156 C 30.203125 14.800781 30.640625 14.960938 30.992188 15.246094 C 30.613281 15.300781 30.261719 15.476562 29.988281 15.75 L 21.4375 24.261719 L 19.757812 22.585938 C 24.191406 18.167969 26.90625 15.863281 28.589844 15.109375 C 28.9375 14.890625 29.34375 14.777344 29.753906 14.785156 Z M 31.238281 15.894531 C 31.527344 15.894531 31.800781 16.011719 32.003906 16.210938 C 32.222656 16.417969 32.34375 16.707031 32.335938 17.007812 C 32.324219 17.308594 32.191406 17.589844 31.964844 17.785156 L 22.871094 25.699219 L 21.890625 24.71875 L 30.472656 16.210938 C 30.675781 16.011719 30.953125 15.898438 31.238281 15.898438 Z M 32.363281 18.40625 C 31.726562 20.921875 28.371094 24.328125 24.867188 27.636719 L 23.449219 26.222656 Z M 19.261719 23.082031 L 19.367188 23.179688 L 20.683594 24.5 L 17.070312 25.269531 Z M 21.433594 25.269531 L 21.4375 25.273438 L 21.875 25.71875 L 21.910156 25.753906 L 22.003906 25.851562 L 22.3125 26.164062 L 20.292969 26.414062 Z M 22.886719 26.796875 L 24.226562 28.140625 C 21.261719 30.605469 18.003906 32.703125 14.53125 34.386719 C 14.296875 34.496094 14.175781 34.753906 14.238281 35.003906 L 14.628906 36.691406 C 14.582031 36.867188 14.515625 36.867188 14.472656 36.828125 L 12.183594 34.523438 L 19.238281 27.367188 Z M 11.660156 35.027344 L 11.984375 35.332031 L 13.671875 37.015625 L 9.914062 36.773438 Z M 11.660156 35.027344 "/>
</g>
</svg>
